HIERARCHY
ROOT Hips
{
    OFFSET 0.000000 91.430000 0.000000
    CHANNELS 6 Xposition Yposition Zposition Zrotation Yrotation Xrotation
    JOINT RightUpLeg
    {
        OFFSET -9.250000 -0.000000 0.000000
        CHANNELS 3 Zrotation Yrotation Xrotation
        JOINT RightLeg
        {
            OFFSET 0.000000 -41.869999 0.000000
            CHANNELS 3 Zrotation Yrotation Xrotation
            JOINT RightFoot
            {
                OFFSET 0.000000 -41.869999 0.000000
                CHANNELS 3 Zrotation Yrotation Xrotation
                End Site
                {
                    OFFSET 0.000000 -7.690000 14.000000
                }
            }
        }
    }
    JOINT LeftUpLeg
    {
        OFFSET 9.250000 -0.000000 0.000000
        CHANNELS 3 Zrotation Yrotation Xrotation
        JOINT LeftLeg
        {
            OFFSET 0.000000 -41.869999 0.000000
            CHANNELS 3 Zrotation Yrotation Xrotation
            JOINT LeftFoot
            {
                OFFSET 0.000000 -41.869999 0.000000
                CHANNELS 3 Zrotation Yrotation Xrotation
                End Site
                {
                    OFFSET 0.000000 -7.690000 14.000000
                }
            }
        }
    }
    JOINT Spine
    {
        OFFSET 0.000000 7.818000 0.000000
        CHANNELS 3 Zrotation Yrotation Xrotation
        JOINT Spine1
        {
            OFFSET 0.000000 17.309999 0.000000
            CHANNELS 3 Zrotation Yrotation Xrotation
            JOINT Spine2
            {
                OFFSET 0.000000 12.285000 0.000000
                CHANNELS 3 Zrotation Yrotation Xrotation
                JOINT Neck
                {
                    OFFSET 0.000000 18.427000 0.000000
                    CHANNELS 3 Zrotation Yrotation Xrotation
                    JOINT Neck1
                    {
                        OFFSET 0.000000 4.735000 0.000000
                        CHANNELS 3 Zrotation Yrotation Xrotation
                        JOINT Head
                        {
                            OFFSET 0.000000 4.735000 0.000000
                            CHANNELS 3 Zrotation Yrotation Xrotation
                            End Site
                            {
                                OFFSET 0.000000 15.950000 0.000000
                            }
                        }
                    }
                }
                JOINT RightShoulder
                {
                    OFFSET -2.792000 12.843000 0.000000
                    CHANNELS 3 Zrotation Yrotation Xrotation
                    JOINT RightArm
                    {
                        OFFSET -13.208000 0.000000 0.000000
                        CHANNELS 3 Zrotation Yrotation Xrotation
                        JOINT RightForeArm
                        {
                            OFFSET -26.500000 0.000000 0.000000
                            CHANNELS 3 Zrotation Yrotation Xrotation
                            JOINT RightHand
                            {
                                OFFSET -26.000000 0.000000 0.000000
                                CHANNELS 3 Zrotation Yrotation Xrotation
                                JOINT RightHandThumb1
                                {
                                    OFFSET -1.842000 -0.461000 2.395000
                                    CHANNELS 3 Zrotation Yrotation Xrotation
                                    JOINT RightHandThumb2
                                    {
                                        OFFSET -3.682000 0.000000 0.000000
                                        CHANNELS 3 Zrotation Yrotation Xrotation
                                        JOINT RightHandThumb3
                                        {
                                            OFFSET -2.559000 0.000000 0.000000
                                            CHANNELS 3 Zrotation Yrotation Xrotation
                                            End Site
                                            {
                                                OFFSET -2.413000 0.000000 0.000000
                                            }
                                        }
                                    }
                                }
                                JOINT RightInHandIndex
                                {
                                    OFFSET -3.224000 0.508000 1.978000
                                    CHANNELS 3 Zrotation Yrotation Xrotation
                                    JOINT RightHandIndex1
                                    {
                                        OFFSET -5.217000 -0.091000 0.999000
                                        CHANNELS 3 Zrotation Yrotation Xrotation
                                        JOINT RightHandIndex2
                                        {
                                            OFFSET -3.620000 0.000000 0.000000
                                            CHANNELS 3 Zrotation Yrotation Xrotation
                                            JOINT RightHandIndex3
                                            {
                                                OFFSET -2.052000 0.000000 0.000000
                                                CHANNELS 3 Zrotation Yrotation Xrotation
                                                End Site
                                                {
                                                    OFFSET -1.805000 0.000000 0.000000
                                                }
                                            }
                                        }
                                    }
                                }
                                JOINT RightInHandMiddle
                                {
                                    OFFSET -3.382000 0.518000 0.757000
                                    CHANNELS 3 Zrotation Yrotation Xrotation
                                    JOINT RightHandMiddle1
                                    {
                                        OFFSET -5.174000 -0.084000 0.314000
                                        CHANNELS 3 Zrotation Yrotation Xrotation
                                        JOINT RightHandMiddle2
                                        {
                                            OFFSET -3.949000 0.000000 0.000000
                                            CHANNELS 3 Zrotation Yrotation Xrotation
                                            JOINT RightHandMiddle3
                                            {
                                                OFFSET -2.476000 0.000000 0.000000
                                                CHANNELS 3 Zrotation Yrotation Xrotation
                                                End Site
                                                {
                                                    OFFSET -1.975000 0.000000 0.000000
                                                }
                                            }
                                        }
                                    }
                                }
                                JOINT RightInHandRing
                                {
                                    OFFSET -3.366000 0.538000 -0.129000
                                    CHANNELS 3 Zrotation Yrotation Xrotation
                                    JOINT RightHandRing1
                                    {
                                        OFFSET -4.635000 -0.022000 -0.479000
                                        CHANNELS 3 Zrotation Yrotation Xrotation
                                        JOINT RightHandRing2
                                        {
                                            OFFSET -3.442000 0.000000 0.000000
                                            CHANNELS 3 Zrotation Yrotation Xrotation
                                            JOINT RightHandRing3
                                            {
                                                OFFSET -2.388000 0.000000 0.000000
                                                CHANNELS 3 Zrotation Yrotation Xrotation
                                                End Site
                                                {
                                                    OFFSET -1.857000 0.000000 0.000000
                                                }
                                            }
                                        }
                                    }
                                }
                                JOINT RightInHandPinky
                                {
                                    OFFSET -3.161000 0.470000 -1.202000
                                    CHANNELS 3 Zrotation Yrotation Xrotation
                                    JOINT RightHandPinky1
                                    {
                                        OFFSET -4.141000 -0.022000 -1.091000
                                        CHANNELS 3 Zrotation Yrotation Xrotation
                                        JOINT RightHandPinky2
                                        {
                                            OFFSET -2.757000 0.000000 0.000000
                                            CHANNELS 3 Zrotation Yrotation Xrotation
                                            JOINT RightHandPinky3
                                            {
                                                OFFSET -1.742000 0.000000 0.000000
                                                CHANNELS 3 Zrotation Yrotation Xrotation
                                                End Site
                                                {
                                                    OFFSET -1.645000 0.000000 0.000000
                                                }
                                            }
                                        }
                                    }
                                }
                            }
                        }
                    }
                }
                JOINT LeftShoulder
                {
                    OFFSET 2.792000 12.843000 0.000000
                    CHANNELS 3 Zrotation Yrotation Xrotation
                    JOINT LeftArm
                    {
                        OFFSET 13.208000 0.000000 0.000000
                        CHANNELS 3 Zrotation Yrotation Xrotation
                        JOINT LeftForeArm
                        {
                            OFFSET 26.500000 0.000000 0.000000
                            CHANNELS 3 Zrotation Yrotation Xrotation
                            JOINT LeftHand
                            {
                                OFFSET 26.000000 0.000000 0.000000
                                CHANNELS 3 Zrotation Yrotation Xrotation
                                JOINT LeftHandThumb1
                                {
                                    OFFSET 1.842000 -0.461000 2.395000
                                    CHANNELS 3 Zrotation Yrotation Xrotation
                                    JOINT LeftHandThumb2
                                    {
                                        OFFSET 3.682000 0.000000 0.000000
                                        CHANNELS 3 Zrotation Yrotation Xrotation
                                        JOINT LeftHandThumb3
                                        {
                                            OFFSET 2.559000 0.000000 0.000000
                                            CHANNELS 3 Zrotation Yrotation Xrotation
                                            End Site
                                            {
                                                OFFSET 2.413000 0.000000 0.000000
                                            }
                                        }
                                    }
                                }
                                JOINT LeftInHandIndex
                                {
                                    OFFSET 3.224000 0.508000 1.978000
                                    CHANNELS 3 Zrotation Yrotation Xrotation
                                    JOINT LeftHandIndex1
                                    {
                                        OFFSET 5.217000 -0.091000 0.999000
                                        CHANNELS 3 Zrotation Yrotation Xrotation
                                        JOINT LeftHandIndex2
                                        {
                                            OFFSET 3.620000 0.000000 0.000000
                                            CHANNELS 3 Zrotation Yrotation Xrotation
                                            JOINT LeftHandIndex3
                                            {
                                                OFFSET 2.052000 0.000000 0.000000
                                                CHANNELS 3 Zrotation Yrotation Xrotation
                                                End Site
                                                {
                                                    OFFSET 1.805000 0.000000 0.000000
                                                }
                                            }
                                        }
                                    }
                                }
                                JOINT LeftInHandMiddle
                                {
                                    OFFSET 3.382000 0.518000 0.757000
                                    CHANNELS 3 Zrotation Yrotation Xrotation
                                    JOINT LeftHandMiddle1
                                    {
                                        OFFSET 5.174000 -0.084000 0.314000
                                        CHANNELS 3 Zrotation Yrotation Xrotation
                                        JOINT LeftHandMiddle2
                                        {
                                            OFFSET 3.949000 0.000000 0.000000
                                            CHANNELS 3 Zrotation Yrotation Xrotation
                                            JOINT LeftHandMiddle3
                                            {
                                                OFFSET 2.476000 0.000000 0.000000
                                                CHANNELS 3 Zrotation Yrotation Xrotation
                                                End Site
                                                {
                                                    OFFSET 1.975000 0.000000 0.000000
                                                }
                                            }
                                        }
                                    }
                                }
                                JOINT LeftInHandRing
                                {
                                    OFFSET 3.366000 0.538000 -0.129000
                                    CHANNELS 3 Zrotation Yrotation Xrotation
                                    JOINT LeftHandRing1
                                    {
                                        OFFSET 4.635000 -0.022000 -0.479000
                                        CHANNELS 3 Zrotation Yrotation Xrotation
                                        JOINT LeftHandRing2
                                        {
                                            OFFSET 3.442000 0.000000 0.000000
                                            CHANNELS 3 Zrotation Yrotation Xrotation
                                            JOINT LeftHandRing3
                                            {
                                                OFFSET 2.388000 0.000000 0.000000
                                                CHANNELS 3 Zrotation Yrotation Xrotation
                                                End Site
                                                {
                                                    OFFSET 1.857000 0.000000 0.000000
                                                }
                                            }
                                        }
                                    }
                                }
                                JOINT LeftInHandPinky
                                {
                                    OFFSET 3.161000 0.470000 -1.202000
                                    CHANNELS 3 Zrotation Yrotation Xrotation
                                    JOINT LeftHandPinky1
                                    {
                                        OFFSET 4.141000 -0.022000 -1.091000
                                        CHANNELS 3 Zrotation Yrotation Xrotation
                                        JOINT LeftHandPinky2
                                        {
                                            OFFSET 2.757000 0.000000 0.000000
                                            CHANNELS 3 Zrotation Yrotation Xrotation
                                            JOINT LeftHandPinky3
                                            {
                                                OFFSET 1.742000 0.000000 0.000000
                                                CHANNELS 3 Zrotation Yrotation Xrotation
                                                End Site
                                                {
                                                    OFFSET 1.645000 0.000000 0.000000
                                                }
                                            }
                                        }
                                    }
                                }
                            }
                        }
                    }
                }
            }
        }
    }
}
MOTION
Frames: 4
Frame Time: 0.008333
45.075684 91.117874 -495.615967 1.695634 0.970137 -0.618251 177.736633 -175.845779 -176.511536 0.202496 -12.795372 4.806654 0.447681 5.215604 -8.156741 1.221128 10.997056 5.560962 179.917740 -172.078705 -178.752548 179.101700 -172.599167 174.751938 179.493393 -179.871155 -179.100754 179.157150 -179.876175 -179.118118 178.894745 -179.396591 -179.368225 1.543661 0.150363 -5.562280 1.596065 0.181585 -6.489162 1.115967 -1.622421 -4.770879 8.376165 7.831555 2.287869 64.684143 -5.890755 -13.265245 90.582024 54.533867 87.595123 174.815659 163.715347 -177.088562 21.122334 31.516090 71.830948 10.625669 -0.000000 0.000000 7.076702 -0.000000 0.000001 180.000000 180.000000 -180.000000 65.477188 6.346008 13.619484 52.951572 -0.000000 0.000000 37.066113 -0.000003 -0.000001 180.000000 180.000000 -180.000000 79.094215 -0.000001 0.000004 79.094185 0.000002 -0.000003 52.676746 0.000002 -0.000003 180.000000 180.000000 -180.000000 85.146263 -0.854762 -9.963769 85.071732 -0.000000 0.000000 56.657764 -0.000006 -0.000003 180.000000 180.000000 -180.000000 89.060295 -0.342006 -19.997196 109.999992 0.000005 0.000001 80.000008 -0.000002 0.000003 172.277771 -177.164200 -179.094315 118.528114 178.885574 178.364319 86.726318 -116.149223 -84.540314 19.617954 -15.540909 -6.408832 155.839584 -146.263687 -108.247757 169.947128 180.000000 -179.999985 173.304794 -179.999985 180.000000 0.000000 -0.000000 0.000000 90.965935 -179.741196 -165.002182 95.376831 -179.999985 -179.999985 120.763779 -179.999985 180.000000 0.000000 -0.000000 0.000000 91.000000 -180.000000 -179.999985 75.077286 -179.999985 -179.999985 110.121468 -179.999985 -179.999985 0.000000 -0.000000 0.000000 90.984802 179.826355 170.001495 70.000008 -179.999985 -179.999985 104.596413 -179.999985 180.000000 0.000000 -0.000000 0.000000 90.939705 179.657990 160.002792 70.000008 179.999985 180.000000 100.000023 180.000000 180.000000
45.048004 91.108162 -495.548828 1.712670 1.023003 -0.643253 177.778976 -175.731293 -176.522110 0.111042 -12.579040 5.034173 0.515219 5.053214 -8.454108 1.221835 10.850717 5.587570 179.900803 -172.227615 -178.682999 179.091064 -172.531067 174.649216 179.490494 -179.860184 -179.077637 179.152451 -179.865372 -179.095459 178.887634 -179.345322 -179.352448 1.547427 0.150661 -5.559688 1.599962 0.181945 -6.486140 1.116652 -1.603348 -4.768511 8.378608 7.832480 2.306950 64.639084 -5.952148 -13.300787 91.518082 54.386211 88.424355 174.709076 163.419662 -177.151718 21.463467 31.189472 72.117928 10.777630 0.000184 -0.000240 7.177893 0.000146 -0.000144 0.000000 0.000003 0.000000 66.386383 6.127760 13.717311 53.712345 0.001352 0.000573 37.598625 0.000507 0.000894 0.000000 0.000003 0.000000 80.018829 0.001745 -0.000546 80.018852 0.000829 0.001637 53.292526 -0.000551 0.001084 0.000000 0.000003 0.000000 86.053848 -0.693422 -9.976398 85.993477 0.000453 0.001763 57.271656 -0.000827 0.000879 0.000000 0.000003 0.000000 89.060295 -0.342008 -19.997198 110.000015 -0.000011 -0.000004 80.000000 0.000002 0.000001 172.280258 -177.175858 -179.077820 118.535942 178.939133 178.400543 85.678627 -116.290802 -83.466942 20.072748 -15.694060 -6.600882 155.510757 -146.842300 -107.906342 169.687546 -179.999908 179.999878 173.131897 -179.999924 179.999939 180.000000 179.999985 179.999985 90.965919 -179.741196 -165.002197 94.718994 -179.999695 -179.998932 120.303307 179.999466 -179.999435 180.000000 179.999985 179.999985 91.000000 -179.999985 -179.999985 74.262077 179.999985 -179.998672 109.578552 179.999146 -179.999725 180.000000 179.999985 179.999985 90.984818 179.826355 170.001495 70.000023 -179.999985 -179.999985 103.813492 179.998734 -179.999756 180.000000 179.999985 179.999985 90.939728 179.657990 160.002808 69.999985 179.999985 179.999985 100.000008 -179.999985 179.999985
45.016350 91.097214 -495.477051 1.727200 1.079522 -0.667405 177.825607 -175.592743 -176.545242 0.013442 -12.324935 5.303445 0.592258 4.866718 -8.805584 1.230752 10.659456 5.607925 179.869995 -172.439316 -178.593765 179.086563 -172.438324 174.520630 179.488693 -179.848160 -179.054947 179.149658 -179.853485 -179.073196 178.882874 -179.289139 -179.336990 1.550622 0.150913 -5.557461 1.603269 0.182249 -6.483543 1.116737 -1.581199 -4.766460 8.378785 7.833768 2.328481 64.592606 -6.013836 -13.339097 92.419617 54.229698 89.205772 174.631302 163.140823 -177.220978 21.770411 30.741879 72.313431 11.008705 0.000379 -0.000412 7.331806 0.000293 -0.000239 0.000000 -0.000000 0.000000 67.272514 5.913040 13.809436 54.454426 0.002394 0.000967 38.118099 0.000888 0.001571 0.000000 -0.000000 0.000000 80.941147 0.003068 -0.001023 80.941147 0.001471 0.002885 53.906784 -0.000984 0.001921 0.000000 -0.000000 0.000000 86.954353 -0.533553 -9.986413 86.907990 0.000823 0.003123 57.880718 -0.001483 0.001553 0.000000 -0.000000 0.000000 89.060295 -0.342005 -19.997198 110.000000 -0.000004 -0.000006 80.000000 -0.000002 -0.000002 172.281174 -177.187012 -179.061111 118.539574 178.991928 178.428207 84.664101 -116.459030 -82.427475 20.486162 -15.831820 -6.784967 155.138382 -147.026016 -107.644379 169.602570 -179.999802 179.999664 173.075333 -179.999847 179.999802 0.000000 0.000007 0.000000 90.965904 -179.741196 -165.002182 94.086952 -179.999466 -179.998474 119.860855 179.999268 -179.999161 0.000000 0.000007 0.000000 91.000000 179.999985 179.999985 73.532600 -179.999985 -179.997940 109.092697 179.998703 -179.999542 0.000000 0.000007 0.000000 90.984779 179.826355 170.001495 69.999992 179.999985 179.999985 103.112755 179.998154 -179.999649 0.000000 0.000007 0.000000 90.939713 179.657990 160.002808 69.999969 -179.999985 -179.999985 100.000038 -179.999985 179.999985
44.980949 91.084259 -495.402191 1.737650 1.132419 -0.685477 177.867798 -175.429504 -176.581665 179.923676 -167.917297 -174.411407 0.666884 4.716879 -9.182417 1.250171 10.535211 5.621374 179.836273 -172.575455 -178.503296 179.088287 -172.356277 174.384735 179.487686 -179.836899 -179.037384 179.148132 -179.842331 -179.055969 178.879852 -179.236542 -179.325119 1.553454 0.151121 -5.554955 1.606197 0.182500 -6.480612 1.117116 -1.565470 -4.764199 8.380883 7.832387 2.351876 64.545639 -6.058492 -13.354513 93.168152 54.090664 89.832062 174.584320 162.919876 -177.285477 22.005352 30.124228 72.335915 11.359665 0.000130 -0.000066 7.565532 0.000088 -0.000034 0.000000 -0.000000 0.000000 67.999519 5.736587 13.882233 55.063526 0.003824 0.001781 38.544464 0.001296 0.002656 0.000000 -0.000000 0.000000 81.677422 0.005281 -0.001647 81.677437 0.002314 0.005020 54.397137 -0.001862 0.003182 0.000000 -0.000000 0.000000 87.956245 -0.357053 -9.994210 87.617477 0.001299 0.005577 58.353214 -0.002744 0.002638 0.000000 -0.000000 0.000000 89.060287 -0.342005 -19.997187 110.000015 0.000007 0.000004 79.999985 0.000001 -0.000004 172.278503 -177.194275 -179.045029 118.540596 179.048660 178.480179 83.833961 -116.604431 -81.572128 20.838783 -15.917016 -6.939953 154.886612 -147.462662 -107.577713 169.350281 -179.999832 179.999680 172.907288 -179.999847 179.999802 180.000000 -179.999985 -179.999985 90.965958 -179.741196 -165.002182 93.691414 -179.998856 -179.997528 119.584045 179.998901 -179.998444 180.000000 -179.999985 -179.999985 91.000000 -179.999985 179.999985 73.048264 -179.999786 -179.996445 108.770119 179.997787 -179.999115 180.000000 -179.999985 -179.999985 90.984825 179.826355 170.001511 70.000008 -179.999985 -179.999985 102.687355 179.996658 -179.999298 180.000000 -179.999985 -179.999985 90.939751 179.658005 160.002808 70.000008 -179.999985 -180.000000 100.000000 179.999985 -179.999985
